<?xml version="1.0" encoding="UTF-8"?>
<svg id="Layer_1" data-name="Layer 1" xmlns="http://www.w3.org/2000/svg" version="1.1" viewBox="0 0 420 62">
  <defs>
    <style>
      .cls-1 {
        fill: #000;
        stroke-width: 0px;
      }
    </style>
  </defs>
  <path class="cls-1" d="M79.2,44.8c-.6-.2-1.2-.4-1.8-.4h-3.4v12h3.4c.6,0,1.2-.1,1.8-.4.6-.2,1-.6,1.4-1.1.9-1,1.3-2.4,1.2-3.7v-1.7c0-1.3-.4-2.7-1.2-3.7-.4-.5-.9-.8-1.4-1.1ZM80.2,51.3c0,1-.2,2-.7,2.8-.2.3-.5.6-.9.8-.4.2-.7.3-1.1.3h-1.7v-9.4h1.7c.4,0,.8,0,1.1.3.4.2.6.5.9.8.5.8.8,1.8.7,2.8v1.7ZM148.2,56.4h0s-1.7,0-1.7,0l-4.7-8.9h0v8.8h-1.7v-12h1.7l4.6,8.8v-8.8h1.7v12ZM232.7,29.6h-13.3V5.8h13.3v3.6h-8.7v6.1h7.3v3.6h0s-7.3,0-7.3,0v6.9h8.7v3.6ZM137.6,5.8h13.3v3.6h-8.7v6.1h7.3v3.6h0s-7.3,0-7.3,0v7h8.7v3.6h-13.3V5.8ZM177.2,44.8c-.6-.2-1.2-.4-1.8-.4h-3.4v12h3.4c.6,0,1.2-.1,1.8-.4.6-.2,1-.6,1.4-1.1.9-1,1.3-2.4,1.2-3.7v-1.7c0-1.3-.4-2.7-1.2-3.7-.4-.5-.9-.8-1.4-1.1ZM178.2,51.2c0,1-.2,2-.7,2.8-.2.3-.5.6-.9.8-.3.2-.7.3-1.1.3h-1.7v-9.4h1.7c.4,0,.8,0,1.1.3.4.2.6.5.9.8.5.8.8,1.8.7,2.8v1.7ZM172.8,21.1c.5.8.8,1.8.8,2.8v1.7c0,.8,0,1.6.1,2.4,0,.6.3,1.2.7,1.7h4.8v-.3c-.4-.4-.7-1-.8-1.6-.1-.7-.2-1.4-.2-2.1v-1.7c0-1.3-.2-2.5-.8-3.6-.6-1-1.6-1.7-2.7-2.1,1-.5,1.9-1.2,2.5-2.2.6-1,.9-2.1.9-3.2,0-1,0-1.9-.4-2.8s-.9-1.7-1.6-2.4c-1.6-1.3-3.6-2-5.6-1.9h-7.1v23.8h4.6v-9.5h2.8c.4,0,.8,0,1.2.2.4.2.7.4,1,.8ZM171.6,16.3c-.4.2-.8.2-1.2.2h-2.5v-7.1h2.5c.4,0,.9,0,1.2.2.4.2.7.4,1,.8.6.8.8,1.7.8,2.6,0,.9-.2,1.8-.8,2.5-.3.3-.6.5-1,.7ZM155.5,54.7h1.7v1.7h-1.7v-1.7ZM22.8,22.2h4.5c0,2.7-.6,4.6-2,5.8-1.6,1.4-3.7,2-5.8,1.9-1.1,0-2.2-.1-3.3-.5-1-.4-2-1-2.8-1.8-.8-.9-1.4-1.9-1.8-3-.4-1.1-.5-2.3-.5-3.4v-7.1c-.1-2.3.6-4.7,2.2-6.4.8-.8,1.7-1.4,2.7-1.8,1-.4,2.1-.6,3.2-.5,2.2-.1,4.3.5,6,1.9,1.4,1.3,2.1,3.2,2,5.7h0c0,0-4.5,0-4.5,0,.1-1.1-.2-2.3-.8-3.2-.4-.3-.8-.6-1.3-.8-.5-.2-1-.2-1.5-.2-.5,0-1,0-1.5.3-.5.2-.8.5-1.1,1-.7,1.2-1,2.5-.9,3.8v7.1c0,1.3.2,2.7.9,3.9.3.4.8.8,1.2,1,.5.2,1,.3,1.6.3.5,0,.9,0,1.3-.2.4-.2.8-.4,1.1-.7.6-1,.9-2.1.8-3.2ZM129.1,50.4h3.9v4.5h0c-.3.6-.8,1-1.4,1.2-.7.4-1.6.6-2.4.5-.6,0-1.1,0-1.6-.3-.5-.2-1-.5-1.4-.9-.4-.4-.7-1-.9-1.5-.2-.6-.3-1.2-.2-1.7v-3.6c0-.6,0-1.2.2-1.7.2-.6.5-1.1.9-1.5.8-.7,1.8-1.1,2.8-1.1,1.1,0,2.1.3,2.9.9.3.3.6.7.8,1.2.2.4.2.9.2,1.4h-1.6c0-.6-.2-1.2-.5-1.7-.2-.2-.5-.4-.7-.5s-.6-.1-.9-.1c-.3,0-.7,0-1,.2s-.6.3-.8.6c-.5.7-.7,1.5-.7,2.3v3.6c0,.8.2,1.7.7,2.3.2.3.5.5.8.6.3.1.7.2,1,.2.5,0,.9,0,1.4-.3.3-.1.6-.4.7-.6v-2.8h-2.3v-1.2ZM85.8,29.6v-15h0l-4.3,15h-3.1l-4.2-14.9h0v14.9h-4.6V5.8h6l4.4,17.7h0s0,0,0,0l4.5-17.7h6v23.8h-4.6ZM56.7,14.4c0-1.2-.1-2.4-.5-3.5-.4-1.1-1-2.2-1.9-3-.8-.8-1.8-1.4-2.9-1.8-1.1-.4-2.2-.6-3.4-.5-1.2,0-2.3.1-3.4.5-1.1.4-2.1,1-2.9,1.8-.8.9-1.4,1.9-1.8,3-.4,1.1-.6,2.3-.5,3.5v6.7c0,1.2.1,2.4.5,3.5.4,1.1,1,2.2,1.8,3,1.7,1.5,4,2.4,6.3,2.4s4.6-.8,6.3-2.4c.8-.9,1.5-1.9,1.9-3,.4-1.1.6-2.3.5-3.5v-6.7ZM51.1,25c-.4.4-.8.8-1.3,1-.5.2-1.1.3-1.6.3-.6,0-1.1,0-1.7-.3-.5-.2-1-.6-1.3-1-.8-1.2-1.1-2.6-1-4v-6.7c-.1-1.4.2-2.8,1-3.9.4-.4.8-.8,1.3-1,.5-.2,1.1-.3,1.7-.3.6,0,1.1,0,1.7.3.5.2,1,.6,1.3,1,.8,1.2,1.1,2.5,1,3.9h0v6.7c.1,1.4-.2,2.8-1,4ZM90.5,55.2h4.8v1.3h-6.5v-12h6.4v1.3h-4.8v3.9h4.1v1.3h0s-4.1,0-4.1,0v4.3ZM118.4,5.8h6v23.8h-4.6v-15h0l-4.3,15h-3.1l-4.3-14.9h0v14.9h-4.6V5.8h6l4.4,17.7h0s0,0,0,0l4.5-17.7ZM109,52.1c.1.4.2.8.2,1.2,0,.4,0,.9-.2,1.3-.2.4-.4.8-.8,1.1-.7.6-1.7.9-2.6.9-1,0-2-.3-2.8-.9-.4-.3-.7-.7-.9-1.2-.2-.5-.3-1-.2-1.5h0s1.6,0,1.6,0c0,.3,0,.7.1,1,.1.3.3.6.5.8.4.4,1,.6,1.6.6.3,0,.5,0,.8-.1.3,0,.5-.2.7-.4.2-.2.3-.4.4-.6,0-.2.1-.5.1-.8h0c0-.4-.2-.9-.5-1.3-.5-.5-1-.8-1.7-1-1-.3-1.8-.7-2.6-1.4-.3-.3-.5-.6-.7-1-.2-.4-.2-.8-.2-1.2,0-.4,0-.9.2-1.3.2-.4.4-.8.8-1.1.7-.6,1.6-1,2.6-.9.5,0,1,0,1.4.2.5.2.9.4,1.2.8.3.3.6.7.8,1.2.2.4.3.9.2,1.4h-1.6c0-.6-.2-1.2-.6-1.7-.2-.2-.4-.4-.7-.5s-.5-.2-.8-.2c-.3,0-.5,0-.8.1-.2,0-.5.2-.6.4-.3.4-.5.9-.5,1.4,0,.2,0,.5.1.7,0,.2.2.4.4.6.5.4,1.1.8,1.8,1,.9.3,1.8.7,2.5,1.4.3.3.5.6.7,1ZM116.2,44.4h1.7v12h-1.7v-12ZM344.4,54.7h1.7v1.7h-1.7v-1.7ZM318.1,44.5c-.5-.2-1.1-.3-1.7-.3-.6,0-1.1,0-1.6.3-.5.2-1,.5-1.4.9-.8.9-1.2,2.1-1.1,3.3v3.3c0,1.2.3,2.4,1.1,3.3.4.4.9.7,1.4.9.5.2,1.1.3,1.6.3.6,0,1.1,0,1.7-.3.5-.2,1-.5,1.4-.9.4-.5.7-1,.9-1.5.2-.6.3-1.2.2-1.8h0v-3.3c0-1.2-.3-2.4-1.2-3.3-.4-.4-.9-.7-1.4-.9ZM319,52c0,.9-.2,1.7-.7,2.4-.2.3-.5.5-.9.6-.3.1-.7.2-1,.2-.4,0-.7,0-1-.2-.3-.1-.6-.4-.8-.6-.5-.7-.7-1.5-.6-2.4v-3.3c0-.8.2-1.7.6-2.4.2-.3.5-.5.8-.6.3-.1.7-.2,1-.2.4,0,.7,0,1,.2.3.1.6.4.9.6.5.7.7,1.5.7,2.4h0s0,3.3,0,3.3ZM330.1,29.6l-7.5-15.2h-.1v15.2h-4.6V5.8h4.6l7.6,15.2h0V5.8h4.6v23.8h-4.6ZM305.3,54.3v-1c0-.6-.1-1.2-.4-1.8-.3-.5-.8-.8-1.3-1,.5-.2,1-.6,1.3-1.1.3-.5.5-1.1.4-1.6,0-.5,0-.9-.2-1.4-.2-.4-.4-.8-.7-1.2-.7-.6-1.7-.9-2.7-.9h-3.5v12h1.7v-5.2h2c.2-.1.5,0,.7,0,.2.1.4.3.6.4.3.5.5,1,.5,1.6v1c0,.4,0,.8,0,1.2,0,.3.2.6.4.8h1.7v-.2c-.2-.2-.3-.5-.4-.7,0-.3-.1-.7-.1-1ZM303.1,49.4c-.2.2-.4.3-.7.4-.3,0-.5.1-.8.1h-1.8v-4.3h1.8c.3,0,.5,0,.8.1.3,0,.5.3.7.5.4.5.5,1,.5,1.6,0,.6-.1,1.1-.5,1.6ZM299.7,29.5c-1.1.4-2.2.6-3.3.5-1.1,0-2.2-.1-3.3-.5-1-.4-2-1-2.8-1.8-.8-.8-1.4-1.8-1.8-2.9-.4-1.1-.6-2.2-.5-3.4V5.8h4.6v15.6c0,1.3.3,2.6,1,3.7.3.4.8.7,1.2.9s1,.3,1.5.3,1-.1,1.5-.3.9-.5,1.2-.9c.7-1.1,1.1-2.4,1-3.7V5.8h4.6v15.6c0,1.1,0,2.3-.4,3.4-.4,1.1-1,2.1-1.8,2.9-.8.8-1.8,1.5-2.8,1.9ZM376.9,5.8h4.6v23.8h-4.6V5.8ZM337.2,44.4h1.8l-2.5,12h-1.5l-2.1-8.5-2.1,8.5h-1.5l-2.5-12h1.8l1.6,8.5h0l2-8.5h1.5l2,8.5h0l1.6-8.5ZM287.1,50.4h3.9v4.5h0c-.3.6-.8,1-1.4,1.2-.7.4-1.6.6-2.4.5-.6,0-1.1,0-1.6-.3-.5-.2-1-.5-1.4-.9-.4-.4-.7-1-.9-1.5-.2-.6-.3-1.2-.2-1.7v-3.6c0-.6,0-1.2.2-1.7.2-.6.5-1.1.9-1.5.8-.7,1.8-1.1,2.8-1.1,1.1,0,2.1.3,2.9.9.3.3.6.7.8,1.2.2.4.2.9.2,1.4h-1.6c0-.6-.2-1.2-.6-1.7-.2-.2-.5-.4-.7-.5-.3-.1-.6-.1-.9-.1-.3,0-.7,0-1,.2-.3.1-.6.3-.8.6-.5.7-.7,1.5-.6,2.3v3.6c0,.8.2,1.7.7,2.3.2.3.5.5.8.6.3.1.7.2,1,.2.5,0,.9,0,1.4-.3.3-.1.5-.4.7-.6v-2.8h-2.2v-1.2ZM408.7,5.8v3.6h-5.5v20.2h-4.6V9.4h-5.5v-3.6h15.7ZM358.6,6.5c-1.1-.5-2.2-.7-3.4-.7h-7.4v23.8h7.4c1.2,0,2.3-.2,3.4-.7,1.1-.5,2-1.2,2.8-2.1,1.7-2,2.5-4.5,2.4-7.2v-3.9c.1-2.6-.8-5.2-2.4-7.2-.8-.9-1.7-1.6-2.8-2.1ZM359.2,19.7c0,1.6-.3,3.2-1.1,4.6-.3.5-.7,1-1.2,1.3s-1.1.5-1.7.5h-2.7V9.4h2.7c.6,0,1.2.1,1.7.5s.9.8,1.2,1.3c.8,1.4,1.2,2.9,1.1,4.5v4ZM199.1,30c-1.1,0-2.2-.1-3.3-.5-1-.4-2-1-2.8-1.8-.8-.9-1.4-1.9-1.8-3-.4-1.1-.5-2.3-.5-3.4v-7.1c-.1-2.3.6-4.7,2.2-6.4.8-.8,1.7-1.4,2.7-1.8,1-.4,2.1-.6,3.2-.5,2.2-.1,4.3.5,6,1.9,1.4,1.3,2.1,3.2,2,5.7h0c0,.1-4.5.1-4.5.1.1-1.1-.2-2.3-.8-3.2-.4-.3-.8-.6-1.3-.8-.5-.2-1-.2-1.5-.2-.5,0-1,0-1.5.3-.5.2-.8.5-1.1,1-.7,1.2-1,2.5-.9,3.8v7.1c0,1.3.2,2.7.9,3.8.3.4.8.8,1.2,1,.5.2,1,.3,1.6.3.5,0,.9,0,1.3-.2.4-.2.8-.4,1.1-.7.6-1,.9-2.1.8-3.2h4.6c0,2.7-.6,4.6-2,5.8-1.6,1.4-3.7,2-5.8,1.9ZM206.2,44.4h1.8l-3.7,12h-1.6l-3.7-12h1.8l2.5,9.2h0l.2.7.2-.7,2.5-9.2ZM216,55.1h4.8v1.3h-6.5v-12h6.4v1.3h-4.8v3.9h4v1.3h0s-4.1,0-4.1,0v4.3ZM229.2,55.1h4.9v1.3h-6.5v-12h1.7v10.7h0ZM188.6,55.1h4.8v1.3h-6.5v-12h6.4v1.3h-4.8v3.9h4.1v1.3h0s-4.1,0-4.1,0v4.3ZM260.5,44.6c-.5-.2-1-.2-1.4-.2h-4v12h1.7v-4.7h2.3c.5,0,1,0,1.4-.2.5-.2.9-.4,1.2-.8.6-.7,1-1.7,1-2.6s-.3-1.9-1-2.6c-.4-.3-.8-.6-1.2-.8ZM260.5,49.7c-.2.2-.4.4-.7.5-.3.1-.5.2-.8.2h-2.3,0v-4.7h2.2c.3,0,.6,0,.8.2.3.1.5.3.7.5.3.5.5,1.1.5,1.7,0,.6-.2,1.2-.5,1.7ZM266.7,54.7h1.7v1.7h-1.7v-1.7ZM271,6.3c-1-.4-2-.5-3.1-.5h-8v23.8h4.6v-8.6h3.4c1,0,2.1,0,3.1-.5,1-.4,1.9-.9,2.6-1.6,1.3-1.5,2.1-3.5,2.1-5.5s-.7-4-2.1-5.5c-.8-.7-1.6-1.3-2.6-1.6ZM270.3,16.3c-.3.4-.6.7-1,.9s-.9.3-1.3.3h-3.4v-8h3.4c.5,0,.9,0,1.3.3.4.2.8.5,1,.9.6.9.9,1.9.8,2.9,0,1-.2,2-.8,2.8ZM247,45.4c-.4-.4-.9-.7-1.4-.9-.5-.2-1.1-.3-1.7-.3-.6,0-1.1,0-1.6.3-.5.2-1,.5-1.4.9-.8.9-1.2,2.1-1.1,3.3v3.3c0,1.2.3,2.4,1.1,3.3.4.4.9.7,1.4.9.5.2,1.1.3,1.6.3.6,0,1.1,0,1.7-.3.5-.2,1-.5,1.4-.9.4-.5.7-1,.9-1.5.2-.6.3-1.2.2-1.8h0v-3.3c0-.6,0-1.2-.2-1.8-.2-.6-.5-1.1-.9-1.5ZM246.5,52c0,.9-.2,1.7-.7,2.4-.2.3-.5.5-.9.6-.3.1-.7.2-1,.2-.4,0-.7,0-1-.2-.3-.1-.6-.4-.8-.6-.5-.7-.7-1.5-.6-2.4v-3.3c0-.8.2-1.7.6-2.4.2-.3.5-.5.8-.6.3-.1.7-.2,1-.2.4,0,.7,0,1.1.2s.6.4.9.6c.5.7.7,1.5.7,2.4v3.3Z"/>
</svg>