<?xml version="1.0" encoding="UTF-8"?>
<svg id="Layer_1" data-name="Layer 1" xmlns="http://www.w3.org/2000/svg" xmlns:xlink="http://www.w3.org/1999/xlink" viewBox="0 0 524.6 148.6">
  <defs>
    <linearGradient id="linear-gradient" x1="404.05" y1="8.02" x2="481.4" y2="76.35" gradientTransform="translate(0 150.6) scale(1 -1)" gradientUnits="userSpaceOnUse">
      <stop offset=".4" stop-color="#f25922"/>
      <stop offset=".7" stop-color="#ffb82a"/>
    </linearGradient>
    <linearGradient id="linear-gradient-2" x1="429.67" y1="-20.98" x2="507.02" y2="47.35" xlink:href="#linear-gradient"/>
    <linearGradient id="linear-gradient-3" x1="460.41" y1="74.54" x2="521.8" y2="128.78" xlink:href="#linear-gradient"/>
    <linearGradient id="linear-gradient-4" x1="424.38" y1="115.33" x2="485.77" y2="169.56" xlink:href="#linear-gradient"/>
  </defs>
  <path d="M65.8,41.3c-4.7-3.8-11.4-5.7-20-5.7h-27.5L4,106.9h13.2l4.1-20.6h17.5c7,0,13-1.2,18.1-3.5s9-5.7,11.8-10.1,4.1-9.6,4.1-15.6-2.4-12-7.1-15.8h.1ZM54.2,70.9c-3.5,2.9-8.5,4.3-14.9,4.3h-15.7l5.6-28.3h15.1c4.9,0,8.6,1,11.3,2.9,2.6,1.9,3.9,4.8,3.9,8.7,0,5.5-1.8,9.7-5.3,12.5v-.1ZM103,54.4c3.9-1.7,8.6-2.5,14.2-2.5l-2.3,12.1c-.5-.1-1.1-.2-1.5-.3h-1.6c-5,0-9.1,1.3-12.3,3.9-3.3,2.6-5.4,6.8-6.5,12.5l-5.4,26.8h-12.7l10.8-54.4h12.1l-1.4,7c2-2.3,4.2-4,6.8-5.1h-.2ZM164.3,54.8c-4-1.9-8.6-2.9-14-2.9s-11.8,1.4-16.7,4.1c-4.9,2.8-8.7,6.5-11.5,11.3s-4.2,10.2-4.2,16.3,1.1,9,3.3,12.6,5.2,6.4,9.2,8.4,8.6,3,13.9,3,11.9-1.4,16.8-4.2c4.9-2.8,8.7-6.6,11.5-11.4s4.2-10.3,4.2-16.3-1.1-9.1-3.3-12.7-5.2-6.3-9.2-8.3v.1ZM161.5,87c-1.6,3.1-3.8,5.4-6.6,7.2-2.8,1.7-6,2.6-9.7,2.6s-8.1-1.2-10.6-3.6-3.8-5.8-3.8-10,.8-7.5,2.4-10.6,3.9-5.4,6.7-7.2c2.8-1.7,6-2.6,9.6-2.6s8.1,1.2,10.6,3.7c2.5,2.4,3.8,5.8,3.8,10s-.8,7.5-2.4,10.6v-.1ZM277.8,63.2c1.3,3.7,1.4,8.2.3,13.6l-6,30.2h-12.7l6-29.8c.9-4.5.5-7.9-1.1-10.4-1.6-2.4-4.6-3.7-8.9-3.7s-8,1.3-10.8,3.8-4.8,6.5-5.9,11.8l-5.7,28.3h-12.7l6-29.8c.9-4.5.5-7.9-1.1-10.4-1.6-2.4-4.6-3.7-8.9-3.7s-8,1.3-10.8,3.8-4.8,6.5-5.9,11.9l-5.7,28.2h-12.7l10.8-54.4h12.1l-1.2,5.9c1.7-1.5,3.5-2.8,5.5-3.8,3.8-1.8,7.9-2.7,12.4-2.7s6.7.6,9.4,1.8c2.7,1.2,4.9,3,6.6,5.4.4.6.7,1.1,1,1.7,1.9-2.1,4.1-3.8,6.5-5.2,4.4-2.5,9.4-3.7,14.9-3.7s8.7,1,11.9,2.9c3.2,1.9,5.4,4.7,6.7,8.4v-.1ZM338,54.7c-3.6-1.9-7.6-2.8-12.1-2.8s-10.7,1.4-14.9,4.1c-1,.6-1.9,1.4-2.8,2.1l1.1-5.7h-12.1l-16.3,81.7h12.7l7.1-35.3c1.7,2.7,3.9,4.7,6.8,6.1,3.3,1.7,7.3,2.5,11.8,2.5s8.4-.8,12.1-2.4,6.9-3.8,9.7-6.7c2.8-2.9,4.9-6.2,6.5-10.1,1.5-3.9,2.3-8.1,2.3-12.7s-1.1-9.3-3.2-12.9-5-6.3-8.6-8.1l-.1.2ZM334.6,87c-1.6,3.1-3.8,5.4-6.6,7.2-2.8,1.7-6,2.6-9.7,2.6s-8.1-1.2-10.6-3.7c-2.5-2.4-3.8-5.8-3.8-10s.8-7.5,2.4-10.6,3.9-5.4,6.7-7.2c2.8-1.7,6-2.6,9.6-2.6s8.1,1.2,10.6,3.7c2.5,2.4,3.8,5.8,3.8,10s-.8,7.5-2.4,10.6ZM374.2,88.7c-.4,2.5-.1,4.6.8,6.1,1,1.6,2.8,2.3,5.4,2.3s2.5-.2,3.7-.6c1.3-.4,2.4-.9,3.4-1.6l2.2,9.4c-1.9,1.2-4,2.1-6.3,2.5-2.3.5-4.6.7-6.8.7-3.5,0-6.6-.8-9.1-2.3s-4.4-3.7-5.5-6.5-1.3-6.2-.6-10l5.1-25.7h-8.8l2-10.2h8.8l2.5-12.4h12.7l-2.5,12.4h14.6l-2,10.2h-14.6l-5.1,25.6.1.1Z" fill="#fff"/>
  <g>
    <polygon points="399.9 148.6 428 142.7 430 142.3 463.05 90.22 436.8 91 399.9 148.6" fill="url(#linear-gradient)" fill-rule="evenodd"/>
    <polygon points="499.54 89.13 476.86 89.8 497.3 122.2 524.5 127.9 499.54 89.13" fill="url(#linear-gradient-2)" fill-rule="evenodd"/>
    <path d="M497.4,26.2s-12.23,19.35-20.05,31.73l23.39-.33,23.86-37.1-27.2,5.7Z" fill="url(#linear-gradient-3)" fill-rule="evenodd"/>
    <polygon points="399.9 0 437.37 58.49 462.9 58.13 430 6.6 399.9 0" fill="url(#linear-gradient-4)" fill-rule="evenodd"/>
  </g>
  <g isolation="isolate">
    <text transform="translate(0 134.3)" fill="#fff" font-family="Poppins-MediumItalic, Poppins" font-size="21.5" font-style="italic" font-weight="500" isolation="isolate"><tspan x="0" y="0">vibe it. prompt it. ship it.</tspan></text>
  </g>
  <text transform="translate(450.01 83.98)" fill="#fff" font-family="Inter-SemiBoldItalic, Inter" font-size="26" font-style="italic" font-weight="600"><tspan x="0" y="0" letter-spacing=".03em">2</tspan><tspan x="16.94" y="0" letter-spacing="-.03em">.</tspan><tspan x="23.75" y="0" letter-spacing="0em">0</tspan></text>
</svg>